<svg xmlns="http://www.w3.org/2000/svg" xmlns:xlink="http://www.w3.org/1999/xlink" width="94" height="94" viewBox="0 0 94 94">
  <defs>
    <clipPath id="clip-path">
      <rect id="Rectangle_276" data-name="Rectangle 276" width="94" height="94" fill="#41a701"/>
    </clipPath>
  </defs>
  <g id="Group_121" data-name="Group 121" clip-path="url(#clip-path)">
    <path id="Path_37" data-name="Path 37" d="M144.625,30.583H130.917A3.92,3.92,0,0,0,127,26.666H103.5a3.921,3.921,0,0,0-3.917,3.917H85.875A5.881,5.881,0,0,0,80,36.458v70.5a5.881,5.881,0,0,0,5.875,5.875h58.75a5.881,5.881,0,0,0,5.875-5.875v-70.5a5.881,5.881,0,0,0-5.875-5.875m-41.125,0H127V34.5H103.5Zm0,7.833H127a3.92,3.92,0,0,0,3.917-3.917h7.833v66.583h-47V34.5h7.833a3.92,3.92,0,0,0,3.917,3.917m43.083,68.542a1.962,1.962,0,0,1-1.958,1.958H85.875a1.962,1.962,0,0,1-1.958-1.958v-70.5A1.961,1.961,0,0,1,85.875,34.5h1.958v68.542A1.957,1.957,0,0,0,89.792,105h50.917a1.957,1.957,0,0,0,1.958-1.958V34.5h1.958a1.961,1.961,0,0,1,1.958,1.958Z" transform="translate(-68.25 -22.749)" fill="#41a701"/>
    <path id="Path_38" data-name="Path 38" d="M215.292,377.25h27.417a1.958,1.958,0,0,0,0-3.917H215.292a1.958,1.958,0,0,0,0,3.917" transform="translate(-182.001 -322.416)" fill="#41a701"/>
    <path id="Path_47" data-name="Path 47" d="M215.292,377.25h27.417a1.958,1.958,0,0,0,0-3.917H215.292a1.958,1.958,0,0,0,0,3.917" transform="translate(-182.001 -345.916)" fill="#41a701"/>
    <path id="Path_39" data-name="Path 39" d="M242.708,453.333H215.291a1.958,1.958,0,0,0,0,3.917h27.417a1.958,1.958,0,0,0,0-3.917" transform="translate(-182 -390.666)" fill="#41a701"/>
    <path id="Path_48" data-name="Path 48" d="M242.708,453.333H215.291a1.958,1.958,0,0,0,0,3.917h27.417a1.958,1.958,0,0,0,0-3.917" transform="translate(-182 -414.166)" fill="#41a701"/>
  </g>
</svg>
