<svg xmlns="http://www.w3.org/2000/svg" xmlns:xlink="http://www.w3.org/1999/xlink" width="95" height="95" viewBox="0 0 95 95">
  <defs>
    <clipPath id="clip-path">
      <rect id="Rectangle_280" data-name="Rectangle 280" width="95" height="95" fill="#002d62"/>
    </clipPath>
  </defs>
  <g id="Group_128" data-name="Group 128" clip-path="url(#clip-path)">
    <path id="Path_55" data-name="Path 55" d="M59.293,131.652H57.306V83.973H91.078a1.987,1.987,0,1,0,0-3.973H55.32a1.986,1.986,0,0,0-1.987,1.987v51.652a1.986,1.986,0,0,0,1.987,1.987h3.973a1.987,1.987,0,0,0,0-3.973" transform="translate(-45.387 -68.437)" fill="#002d62"/>
    <path id="Path_56" data-name="Path 56" d="M175.006,311.357a7.12,7.12,0,0,0-5.459.388l-.454.227V299.294a5.96,5.96,0,0,0-11.92,0v2.352a5.774,5.774,0,0,0-5.96,1.184,5.907,5.907,0,0,0-9.7,2.861,5.939,5.939,0,0,0-8.176,5.522v8.637a16.017,16.017,0,0,0,1.676,7.108l2.507,5.009s.008.006.01.011a3.848,3.848,0,0,0-.22,1.087v3.973a3.976,3.976,0,0,0,3.973,3.973H165.12a3.976,3.976,0,0,0,3.973-3.973v-3.973a3.814,3.814,0,0,0-.2-.968l8.9-8.9a7.15,7.15,0,0,0-2.794-11.838m-9.886,25.682H141.28v-3.973H165.12Zm9.871-16.653-8.9,8.9a3.813,3.813,0,0,0-.968-.2H141.28a3.767,3.767,0,0,0-.69.139l-2.026-4.047a12.045,12.045,0,0,1-1.257-5.335v-8.637a1.987,1.987,0,0,1,3.973,0,1.987,1.987,0,1,0,3.973,0V307.24a1.987,1.987,0,0,1,3.973,0v3.973a1.987,1.987,0,1,0,3.973,0V307.24a1.987,1.987,0,0,1,3.973,0v3.973a1.987,1.987,0,1,0,3.973,0V299.294a1.987,1.987,0,1,1,3.973,0V319.16a1.987,1.987,0,0,0,3.973,0v-2.745l2.231-1.116a3.126,3.126,0,0,1,2.421-.175,3.179,3.179,0,0,1,1.245,5.261" transform="translate(-113.468 -249.986)" fill="#002d62"/>
    <path id="Path_57" data-name="Path 57" d="M335.893,111.786A15.893,15.893,0,1,0,320,95.893a15.91,15.91,0,0,0,15.893,15.893m0-27.813a11.92,11.92,0,1,1-11.92,11.92,11.933,11.933,0,0,1,11.92-11.92" transform="translate(-272.321 -68.437)" fill="#002d62"/>
    <path id="Path_58" data-name="Path 58" d="M421.607,32.34A11.924,11.924,0,0,1,437.966,48.7a1.987,1.987,0,0,0,3.407,2.045,15.9,15.9,0,0,0-21.814-21.808,1.986,1.986,0,1,0,2.049,3.4" transform="translate(-356.228 -23.051)" fill="#002d62"/>
    <path id="Path_59" data-name="Path 59" d="M392.627,134.3c-1.137,0-1.987-.631-1.987-1.193a1.987,1.987,0,0,0-3.973,0,5.272,5.272,0,0,0,3.99,4.854,1.971,1.971,0,0,0,3.939,0,5.272,5.272,0,0,0,3.99-4.854c0-2.848-2.673-5.164-5.96-5.164-1.137,0-1.987-.629-1.987-1.191s.85-1.193,1.987-1.193,1.987.631,1.987,1.193a1.987,1.987,0,0,0,3.973,0,5.272,5.272,0,0,0-3.99-4.854,1.971,1.971,0,0,0-3.939,0,5.272,5.272,0,0,0-3.99,4.854c0,2.848,2.673,5.164,5.96,5.164,1.137,0,1.987.629,1.987,1.191s-.85,1.193-1.987,1.193" transform="translate(-329.055 -102.478)" fill="#002d62"/>
    <path id="Path_60" data-name="Path 60" d="M493.906,213.333a1.985,1.985,0,0,0-1.987,1.987v29.8h-9.933a1.987,1.987,0,0,0,0,3.973h11.92a1.985,1.985,0,0,0,1.987-1.987V215.32a1.985,1.985,0,0,0-1.987-1.987" transform="translate(-408.482 -181.904)" fill="#002d62"/>
  </g>
</svg>
