<svg xmlns="http://www.w3.org/2000/svg" xmlns:xlink="http://www.w3.org/1999/xlink" width="104" height="104" viewBox="0 0 104 104">
  <defs>
    <clipPath id="clip-path">
      <rect id="Rectangle_277" data-name="Rectangle 277" width="104" height="104" transform="translate(0 0)" fill="#7fc61d"/>
    </clipPath>
  </defs>
  <g id="Group_124" data-name="Group 124" transform="translate(0.209 0.209)">
    <g id="Group_123" data-name="Group 123" transform="translate(-0.209 -0.209)" clip-path="url(#clip-path)">
      <path id="Path_41" data-name="Path 41" d="M84.949,140.44H30.984V84.317h77.709v38.854a2.159,2.159,0,1,0,4.317,0V82.159A2.157,2.157,0,0,0,110.852,80H28.826a2.157,2.157,0,0,0-2.159,2.159V142.6a2.157,2.157,0,0,0,2.159,2.159H84.949a2.159,2.159,0,0,0,0-4.317" transform="translate(-22.155 -66.854)" fill="#7fc61d"/>
      <path id="Path_42" data-name="Path 42" d="M237.077,137.65a2.159,2.159,0,0,0,0-4.317H215.492a2.159,2.159,0,1,0,0,4.317Z" transform="translate(-178.601 -111.553)" fill="#7fc61d"/>
      <path id="Path_43" data-name="Path 43" d="M82.159,186.667A2.157,2.157,0,0,0,80,188.826v8.634a2.157,2.157,0,0,0,2.159,2.159h64.757a2.157,2.157,0,0,0,2.159-2.159v-8.634a2.157,2.157,0,0,0-2.159-2.159Zm2.159,4.317H97.269V195.3H84.317Zm60.44,4.317H101.586v-4.317h43.172Z" transform="translate(-66.854 -156.253)" fill="#7fc61d"/>
      <path id="Path_44" data-name="Path 44" d="M133.964,310.6H101.586v-4.317H140.44a2.159,2.159,0,1,0,0-4.317H101.586V297.65h43.172v4.317a2.159,2.159,0,0,0,4.317,0v-6.476a2.157,2.157,0,0,0-2.159-2.159H82.159A2.157,2.157,0,0,0,80,295.492V312.76a2.157,2.157,0,0,0,2.159,2.159h51.806a2.159,2.159,0,1,0,0-4.317m-36.7-8.634H84.317V297.65H97.269Zm-12.951,4.317H97.269V310.6H84.317Z" transform="translate(-66.854 -245.65)" fill="#7fc61d"/>
      <path id="Path_45" data-name="Path 45" d="M441.777,373.333a15.11,15.11,0,1,0,15.11,15.11,15.128,15.128,0,0,0-15.11-15.11m0,25.9a10.793,10.793,0,1,1,10.793-10.793,10.8,10.8,0,0,1-10.793,10.793" transform="translate(-357.398 -312.698)" fill="#7fc61d"/>
      <path id="Path_46" data-name="Path 46" d="M489.269,414.221c-1,0-1.619-.561-1.619-.864s.616-.864,1.619-.864a2.084,2.084,0,0,1,1.4.476,2.16,2.16,0,0,0,2.926-3.179,6.011,6.011,0,0,0-2.219-1.243,2.115,2.115,0,0,0-4.2-.021,5.259,5.259,0,0,0-3.838,4.831c0,2.859,2.665,5.182,5.936,5.182,1,0,1.619.561,1.619.864s-.616.864-1.619.864a2.083,2.083,0,0,1-1.4-.476,2.16,2.16,0,0,0-2.926,3.179,6.012,6.012,0,0,0,2.219,1.243,2.115,2.115,0,0,0,4.2.021,5.259,5.259,0,0,0,3.838-4.831c0-2.858-2.665-5.181-5.936-5.181" transform="translate(-404.89 -340.635)" fill="#7fc61d"/>
    </g>
  </g>
</svg>
