<svg xmlns="http://www.w3.org/2000/svg" xmlns:xlink="http://www.w3.org/1999/xlink" width="100" height="100" viewBox="0 0 100 100">
  <defs>
    <clipPath id="clip-path">
      <rect id="Rectangle_275" data-name="Rectangle 275" width="100" height="100" transform="translate(-0.057 -0.256)" fill="#1d7fc6"/>
    </clipPath>
  </defs>
  <g id="Group_112" data-name="Group 112" transform="translate(0.057 0.256)">
    <g id="Group_112-2" data-name="Group 112" transform="translate(0 0)" clip-path="url(#clip-path)">
      <path id="Path_30" data-name="Path 30" d="M121.26,90.384a2.057,2.057,0,0,0-2.058,2.058v22.642h-12.35a4.12,4.12,0,0,0-4.117,4.117v12.35H59.509a2.062,2.062,0,0,1-2.058-2.058V59.508a2.061,2.061,0,0,1,2.058-2.058h49.4a2.058,2.058,0,1,0,0-4.117h-49.4a6.182,6.182,0,0,0-6.175,6.175v69.985a6.182,6.182,0,0,0,6.175,6.175h45.284a2.057,2.057,0,0,0,1.455-.6L122.716,118.6a2.057,2.057,0,0,0,.6-1.455v-24.7a2.057,2.057,0,0,0-2.058-2.058M116.291,119.2l-9.44,9.44V119.2Z" transform="translate(-44.654 -44.87)" fill="#1d7fc6"/>
      <path id="Path_31" data-name="Path 31" d="M266,75.96l-3.618-3.618a8.245,8.245,0,0,0-11.643,0l-31.475,31.475a8.24,8.24,0,0,0-2.167,3.825l-3.7,14.809a2.06,2.06,0,0,0,2,2.557,2.11,2.11,0,0,0,.5-.06l14.8-3.7a8.215,8.215,0,0,0,3.831-2.167L266,87.6a8.231,8.231,0,0,0,0-11.643m-45.374,34.549,7.207,7.207-9.609,2.4Zm42.463-25.817-31.229,31.229-9.439-9.44,31.229-31.229a4.125,4.125,0,0,1,5.821,0l3.618,3.618a4.115,4.115,0,0,1,0,5.821" transform="translate(-179.953 -58.909)" fill="#1d7fc6"/>
      <path id="Path_32" data-name="Path 32" d="M158.034,135.392a2.057,2.057,0,0,0-2.058-2.058H135.391a2.058,2.058,0,1,0,0,4.117h20.584a2.057,2.057,0,0,0,2.058-2.058" transform="translate(-112.302 -112.521)" fill="#1d7fc6"/>
      <path id="Path_33" data-name="Path 33" d="M149.8,215.392a2.057,2.057,0,0,0-2.058-2.058h-12.35a2.058,2.058,0,1,0,0,4.117h12.35a2.057,2.057,0,0,0,2.058-2.058" transform="translate(-112.302 -180.17)" fill="#1d7fc6"/>
      <path id="Path_34" data-name="Path 34" d="M133.333,482.058a2.057,2.057,0,0,0,2.058,2.058h28.817a2.058,2.058,0,1,0,0-4.117H135.391a2.057,2.057,0,0,0-2.058,2.058" transform="translate(-112.302 -405.669)" fill="#1d7fc6"/>
    </g>
  </g>
</svg>
