<svg xmlns="http://www.w3.org/2000/svg" xmlns:xlink="http://www.w3.org/1999/xlink" width="36" height="36" viewBox="0 0 36 36">
  <defs>
    <clipPath id="clip-path">
      <rect id="Rectangle_271" data-name="Rectangle 271" width="36" height="36" fill="#fff"/>
    </clipPath>
  </defs>
  <g id="Group_105" data-name="Group 105" clip-path="url(#clip-path)">
    <path id="Path_21" data-name="Path 21" d="M80.75,87.5h12a.75.75,0,0,0,.75-.75v-6a.75.75,0,0,0-.75-.75h-12a.75.75,0,0,0-.75.75v6a.75.75,0,0,0,.75.75m.75-6H92V86H81.5Z" transform="translate(-75.5 -75.5)" fill="#fff"/>
    <path id="Path_22" data-name="Path 22" d="M117.167,245.25a5.25,5.25,0,1,0-5.25,5.25,5.256,5.256,0,0,0,5.25-5.25m-5.25,3.75a3.738,3.738,0,0,1-2.244-6.736.738.738,0,0,0,.073.321l2.25,4.5a.75.75,0,1,0,1.342-.671l-2.25-4.5a.74.74,0,0,0-.21-.25,3.7,3.7,0,0,1,1.039-.165,3.75,3.75,0,1,1,0,7.5" transform="translate(-100.667 -226.5)" fill="#fff"/>
    <path id="Path_23" data-name="Path 23" d="M58.167,35.805V31.917a.75.75,0,0,0-1.5,0v3.888a2.246,2.246,0,0,0-1.5,2.112v13.5a.75.75,0,0,0,.75.75h.75v3.75a2.252,2.252,0,0,1-2.25,2.25h-13.5a2.252,2.252,0,0,1-2.25-2.25v-.75h1.5a2.252,2.252,0,0,0,2.25,2.25h7.5a2.252,2.252,0,0,0,2.25-2.25v-3h.75a.75.75,0,0,0,.75-.75v-13.5a2.246,2.246,0,0,0-1.5-2.112V31.917a.75.75,0,0,0-1.5,0v3.888a2.246,2.246,0,0,0-1.5,2.112v13.5a.75.75,0,0,0,.75.75h.75v3a.751.751,0,0,1-.75.75h-7.5a.751.751,0,0,1-.75-.75h.75a3.753,3.753,0,0,0,3.75-3.75v-21a3.754,3.754,0,0,0-3.75-3.75h-12a3.754,3.754,0,0,0-3.75,3.75v21a3.753,3.753,0,0,0,3.75,3.75h6.75v.75a3.753,3.753,0,0,0,3.75,3.75h13.5a3.753,3.753,0,0,0,3.75-3.75v-3.75h.75a.75.75,0,0,0,.75-.75v-13.5a2.246,2.246,0,0,0-1.5-2.112m-7.5,4.362h1.5v10.5h-1.5Zm.75-3a.751.751,0,0,1,.75.75v.75h-1.5v-.75a.751.751,0,0,1,.75-.75m-21,16.5a2.252,2.252,0,0,1-2.25-2.25v-21a2.252,2.252,0,0,1,2.25-2.25h12a2.252,2.252,0,0,1,2.25,2.25v21a2.252,2.252,0,0,1-2.25,2.25h-.75v-2.25a.75.75,0,1,0-1.5,0v2.25h-1.5v-2.25a.75.75,0,1,0-1.5,0v2.25Zm27-16.5a.751.751,0,0,1,.75.75v.75h-1.5v-.75a.751.751,0,0,1,.75-.75m-.75,3h1.5v10.5h-1.5Z" transform="translate(-25.167 -25.167)" fill="#fff"/>
    <path id="Path_24" data-name="Path 24" d="M80.75,266.667a.75.75,0,1,0,.75.75.75.75,0,0,0-.75-.75" transform="translate(-75.5 -251.667)" fill="#fff"/>
    <path id="Path_25" data-name="Path 25" d="M294.084,266.667a.75.75,0,1,0,.75.75.75.75,0,0,0-.75-.75" transform="translate(-276.834 -251.667)" fill="#fff"/>
    <path id="Path_26" data-name="Path 26" d="M240.75,133.333a.75.75,0,1,0,.75.75.75.75,0,0,0-.75-.75" transform="translate(-226.5 -125.833)" fill="#fff"/>
    <path id="Path_27" data-name="Path 27" d="M187.417,133.333a.75.75,0,1,0,.75.75.75.75,0,0,0-.75-.75" transform="translate(-176.167 -125.833)" fill="#fff"/>
    <path id="Path_28" data-name="Path 28" d="M134.084,133.333a.75.75,0,1,0,.75.75.75.75,0,0,0-.75-.75" transform="translate(-125.834 -125.833)" fill="#fff"/>
  </g>
</svg>
