<svg xmlns="http://www.w3.org/2000/svg" xmlns:xlink="http://www.w3.org/1999/xlink" width="122" height="122" viewBox="0 0 122 122">
  <defs>
    <clipPath id="clip-path">
      <rect id="Rectangle_279" data-name="Rectangle 279" width="122" height="122" transform="translate(0 0.303)" fill="#005a9b"/>
    </clipPath>
  </defs>
  <g id="Group_126" data-name="Group 126" transform="translate(0 -0.303)" clip-path="url(#clip-path)">
    <path id="Path_50" data-name="Path 50" d="M117.168,167.948a2.552,2.552,0,0,0-2.553,2.554v12.767H58.44v-71.5H94.188v17.874a2.552,2.552,0,0,0,2.554,2.554h17.874v17.874a2.553,2.553,0,0,0,5.107,0V129.647a2.418,2.418,0,0,0-.067-.331,2.325,2.325,0,0,0-.064-.317,2.528,2.528,0,0,0-.621-1.16L98.549,107.417a2.529,2.529,0,0,0-1.158-.62,2.338,2.338,0,0,0-.322-.065,2.427,2.427,0,0,0-.328-.066H55.886a2.552,2.552,0,0,0-2.553,2.554v76.6a2.552,2.552,0,0,0,2.553,2.553h61.282a2.552,2.552,0,0,0,2.554-2.553V170.5a2.552,2.552,0,0,0-2.554-2.554M99.294,127.093v-11.71L111,127.093Z" transform="translate(-43.119 -86.239)" fill="#005a9b"/>
    <path id="Path_51" data-name="Path 51" d="M349.312,312.182a2.561,2.561,0,0,0-.555-2.784L333.44,294.081a2.553,2.553,0,1,0-3.611,3.611l10.962,10.962h-44.9a2.553,2.553,0,0,0,0,5.107h44.9l-10.962,10.962a2.553,2.553,0,1,0,3.611,3.611l15.317-15.317a2.553,2.553,0,0,0,.555-.833" transform="translate(-237.158 -237.158)" fill="#005a9b"/>
    <path id="Path_52" data-name="Path 52" d="M169.081,269.22a2.552,2.552,0,0,0-2.553-2.553H135.887a2.553,2.553,0,1,0,0,5.107h30.641a2.552,2.552,0,0,0,2.553-2.553" transform="translate(-107.799 -215.599)" fill="#005a9b"/>
    <path id="Path_53" data-name="Path 53" d="M156.314,346.667H135.886a2.553,2.553,0,0,0,0,5.107h20.427a2.553,2.553,0,0,0,0-5.107" transform="translate(-107.799 -280.278)" fill="#005a9b"/>
    <path id="Path_54" data-name="Path 54" d="M156.314,426.667H135.886a2.553,2.553,0,0,0,0,5.107h20.427a2.553,2.553,0,0,0,0-5.107" transform="translate(-107.799 -344.958)" fill="#005a9b"/>
  </g>
</svg>
