<svg id="Group_108" data-name="Group 108" xmlns="http://www.w3.org/2000/svg" xmlns:xlink="http://www.w3.org/1999/xlink" width="36" height="36" viewBox="0 0 36 36">
  <defs>
    <clipPath id="clip-path">
      <rect id="Rectangle_272" data-name="Rectangle 272" width="36" height="36" fill="none"/>
    </clipPath>
  </defs>
  <g id="Group_107" data-name="Group 107" clip-path="url(#clip-path)">
    <path id="Path_29" data-name="Path 29" d="M96.341,61.391l-11.25-11.25a2.247,2.247,0,0,0-3.181,0l-11.25,11.25A2.248,2.248,0,0,0,70,62.982V78.925a1.125,1.125,0,0,0,1.125,1.125h9a1.125,1.125,0,0,0,1.125-1.125V75.55a2.25,2.25,0,0,1,4.5,0v3.375a1.125,1.125,0,0,0,1.125,1.125h9A1.125,1.125,0,0,0,97,78.925V62.982a2.248,2.248,0,0,0-.659-1.591M94.75,77.238a.563.563,0,0,1-.562.563H88.563A.563.563,0,0,1,88,77.238V75.55a4.5,4.5,0,0,0-9,0v1.688a.563.563,0,0,1-.562.563H72.813a.563.563,0,0,1-.562-.562V63.216a.56.56,0,0,1,.164-.4L83.1,52.13a.562.562,0,0,1,.8,0L94.586,62.818a.56.56,0,0,1,.164.4Z" transform="translate(-65.5 -46.3)" fill="#fff"/>
  </g>
</svg>
