<svg xmlns="http://www.w3.org/2000/svg" xmlns:xlink="http://www.w3.org/1999/xlink" width="102" height="102" viewBox="0 0 102 102">
  <defs>
    <clipPath id="clip-path">
      <rect id="Rectangle_271" data-name="Rectangle 271" width="102" height="102" transform="translate(0.305 0.305)" fill="#ea8700"/>
    </clipPath>
  </defs>
  <g id="Group_120" data-name="Group 120" transform="translate(-0.305 -0.305)">
    <g id="Group_105" data-name="Group 105" clip-path="url(#clip-path)">
      <path id="Path_21" data-name="Path 21" d="M82.131,101.314h34.1a2.13,2.13,0,0,0,2.131-2.131V82.131A2.13,2.13,0,0,0,116.233,80h-34.1A2.13,2.13,0,0,0,80,82.131V99.182a2.13,2.13,0,0,0,2.131,2.131m2.131-17.051H114.1V97.051H84.263Z" transform="translate(-67.212 -67.212)" fill="#ea8700"/>
      <path id="Path_22" data-name="Path 22" d="M136.506,254.919a14.919,14.919,0,1,0-14.919,14.92,14.938,14.938,0,0,0,14.919-14.92m-14.919,10.657a10.622,10.622,0,0,1-6.377-19.142,2.1,2.1,0,0,0,.208.914l6.394,12.788a2.132,2.132,0,1,0,3.813-1.907l-6.394-12.788a2.1,2.1,0,0,0-.6-.71,10.508,10.508,0,0,1,2.952-.468,10.657,10.657,0,1,1,0,21.314" transform="translate(-89.616 -201.636)" fill="#ea8700"/>
      <path id="Path_23" data-name="Path 23" d="M116.184,52.636V41.586a2.131,2.131,0,0,0-4.263,0V52.636a6.384,6.384,0,0,0-4.263,6V97a2.13,2.13,0,0,0,2.131,2.131h2.131V109.79a6.4,6.4,0,0,1-6.394,6.394H67.163a6.4,6.4,0,0,1-6.394-6.394v-2.131h4.263a6.4,6.4,0,0,0,6.394,6.394H92.739a6.4,6.4,0,0,0,6.394-6.394V99.133h2.131A2.13,2.13,0,0,0,103.4,97V58.637a6.384,6.384,0,0,0-4.263-6V41.586a2.131,2.131,0,0,0-4.263,0V52.636a6.384,6.384,0,0,0-4.263,6V97a2.13,2.13,0,0,0,2.131,2.131H94.87v8.525a2.135,2.135,0,0,1-2.131,2.131H71.426a2.136,2.136,0,0,1-2.131-2.131h2.131A10.667,10.667,0,0,0,82.082,97V37.324A10.668,10.668,0,0,0,71.426,26.667h-34.1A10.668,10.668,0,0,0,26.667,37.324V97a10.667,10.667,0,0,0,10.657,10.657H56.506v2.131a10.667,10.667,0,0,0,10.657,10.657h38.364a10.667,10.667,0,0,0,10.657-10.657V99.133h2.131A2.13,2.13,0,0,0,120.447,97V58.637a6.384,6.384,0,0,0-4.263-6M94.87,65.031h4.263V94.871H94.87ZM97,56.506a2.134,2.134,0,0,1,2.131,2.131v2.131H94.87V58.637A2.134,2.134,0,0,1,97,56.506M37.324,103.4A6.4,6.4,0,0,1,30.93,97V37.324a6.4,6.4,0,0,1,6.394-6.394h34.1a6.4,6.4,0,0,1,6.394,6.394V97a6.4,6.4,0,0,1-6.394,6.394H69.294V97a2.131,2.131,0,1,0-4.263,0V103.4H60.769V97a2.131,2.131,0,1,0-4.263,0V103.4Zm76.729-46.89a2.134,2.134,0,0,1,2.131,2.131v2.131h-4.263V58.637a2.134,2.134,0,0,1,2.131-2.131m-2.131,8.526h4.263V94.871h-4.263Z" transform="translate(-22.404 -22.404)" fill="#ea8700"/>
      <path id="Path_24" data-name="Path 24" d="M82.131,266.667a2.131,2.131,0,1,0,2.131,2.131,2.131,2.131,0,0,0-2.131-2.131" transform="translate(-67.212 -224.04)" fill="#ea8700"/>
      <path id="Path_25" data-name="Path 25" d="M295.465,266.667A2.131,2.131,0,1,0,297.6,268.8a2.131,2.131,0,0,0-2.131-2.131" transform="translate(-246.444 -224.04)" fill="#ea8700"/>
      <path id="Path_26" data-name="Path 26" d="M242.131,133.333a2.131,2.131,0,1,0,2.131,2.131,2.131,2.131,0,0,0-2.131-2.131" transform="translate(-201.636 -112.019)" fill="#ea8700"/>
      <path id="Path_27" data-name="Path 27" d="M188.8,133.333a2.131,2.131,0,1,0,2.131,2.131,2.131,2.131,0,0,0-2.131-2.131" transform="translate(-156.828 -112.019)" fill="#ea8700"/>
      <path id="Path_28" data-name="Path 28" d="M135.465,133.333a2.131,2.131,0,1,0,2.131,2.131,2.131,2.131,0,0,0-2.131-2.131" transform="translate(-112.02 -112.019)" fill="#ea8700"/>
    </g>
  </g>
</svg>
