<svg xmlns="http://www.w3.org/2000/svg" xmlns:xlink="http://www.w3.org/1999/xlink" width="108" height="108" viewBox="0 0 108 108">
  <defs>
    <clipPath id="clip-path">
      <rect id="Rectangle_278" data-name="Rectangle 278" width="108" height="108" transform="translate(0.177 0.177)" fill="#1d98c6"/>
    </clipPath>
  </defs>
  <g id="Group_125" data-name="Group 125" transform="translate(-0.177 -0.177)" clip-path="url(#clip-path)">
    <path id="Path_49" data-name="Path 49" d="M187.285,62.457a31.478,31.478,0,0,0-22.249-9.123c-.159,0-.318,0-.473,0A31.956,31.956,0,0,0,133.33,84.42a31.568,31.568,0,0,0,16.884,28.645,2.132,2.132,0,0,1,1.23,1.845v4.1a6.754,6.754,0,0,0,2.265,5.027v10.826a4.533,4.533,0,0,0,4.529,4.529v2.265a2.263,2.263,0,0,0,2.265,2.265h9.059a2.263,2.263,0,0,0,2.265-2.265v-2.265a4.532,4.532,0,0,0,4.529-4.529V124.037a6.754,6.754,0,0,0,2.265-5.027v-3.932a2.436,2.436,0,0,1,1.389-2.1,31.7,31.7,0,0,0,7.276-50.524m-26.1,43.792a15,15,0,0,0-2.8-3.888L155.017,99a12.3,12.3,0,0,1-3.574-8.627,5.329,5.329,0,0,1,7.312-4.95l1.588.635a8.91,8.91,0,0,0-2.105,5.777,6.794,6.794,0,1,0,13.588,0,8.91,8.91,0,0,0-2.106-5.777l1.592-.637a5.33,5.33,0,0,1,7.307,4.952A12.3,12.3,0,0,1,175.045,99l-3.362,3.362A14.946,14.946,0,0,0,167.3,112.95v8.325h-4.529V112.95a15.047,15.047,0,0,0-1.584-6.7m1.584-14.415a4.4,4.4,0,0,1,2.265-3.864,4.4,4.4,0,0,1,2.265,3.864,2.265,2.265,0,1,1-4.529,0m9.059,43.029H158.237v-4.406l12.872,4.291a2.252,2.252,0,0,0,.717.115h0Zm0-4.653-12.872-4.291a2.223,2.223,0,0,0-.717-.085v-.03h13.588Zm6.042-21.218a6.971,6.971,0,0,0-3.777,6.086v3.932a2.269,2.269,0,0,1-2.265,2.265V112.95a10.4,10.4,0,0,1,3.061-7.387l3.362-3.362a16.856,16.856,0,0,0,4.9-11.83,9.86,9.86,0,0,0-13.522-9.156l-4.6,1.838-4.591-1.836a9.859,9.859,0,0,0-13.526,9.154,16.856,16.856,0,0,0,4.9,11.83l3.362,3.362a10.427,10.427,0,0,1,3.061,7.387v8.325a2.269,2.269,0,0,1-2.265-2.265v-4.1a6.672,6.672,0,0,0-3.64-5.847,27.053,27.053,0,0,1-14.473-24.556c.27-14.232,12.527-26.433,26.765-26.641.137,0,.274,0,.407,0a27.175,27.175,0,0,1,12.836,51.128" transform="translate(-110.886 -44.482)" fill="#1d98c6"/>
  </g>
</svg>
