<svg xmlns="http://www.w3.org/2000/svg" xmlns:xlink="http://www.w3.org/1999/xlink" width="36" height="36" viewBox="0 0 36 36">
  <defs>
    <clipPath id="clip-path">
      <rect id="Rectangle_268" data-name="Rectangle 268" width="36" height="36" transform="translate(0.1 0.1)" fill="none"/>
    </clipPath>
  </defs>
  <g id="Group_99" data-name="Group 99" transform="translate(-0.1 -0.1)" clip-path="url(#clip-path)">
    <path id="Path_17" data-name="Path 17" d="M151.293,56.372a10.482,10.482,0,0,0-7.409-3.038h-.158a10.642,10.642,0,0,0-10.4,10.351,10.513,10.513,0,0,0,5.622,9.539.71.71,0,0,1,.409.614V75.2a2.249,2.249,0,0,0,.754,1.674v3.605a1.509,1.509,0,0,0,1.508,1.508v.754a.754.754,0,0,0,.754.754h3.017a.754.754,0,0,0,.754-.754v-.754a1.509,1.509,0,0,0,1.508-1.508V76.879a2.249,2.249,0,0,0,.754-1.674V73.9a.811.811,0,0,1,.462-.7,10.557,10.557,0,0,0,2.423-16.825M142.6,70.955a5,5,0,0,0-.934-1.295l-1.119-1.119a4.1,4.1,0,0,1-1.19-2.873,1.774,1.774,0,0,1,2.435-1.648l.529.211a2.967,2.967,0,0,0-.7,1.924,2.262,2.262,0,0,0,4.525,0,2.967,2.967,0,0,0-.7-1.924l.53-.212a1.775,1.775,0,0,1,2.433,1.649,4.1,4.1,0,0,1-1.19,2.873L146.1,69.66a4.977,4.977,0,0,0-1.461,3.526v2.772h-1.508V73.187a5.011,5.011,0,0,0-.527-2.232m.527-4.8a.864.864,0,1,1,1.508,0,.754.754,0,1,1-1.508,0m3.017,14.329H141.62V79.017l4.286,1.429a.75.75,0,0,0,.239.038h0Zm0-1.55-4.286-1.429a.74.74,0,0,0-.239-.028v-.01h4.525Zm2.012-7.066A2.321,2.321,0,0,0,146.9,73.9V75.2a.756.756,0,0,1-.754.754V73.187a3.464,3.464,0,0,1,1.019-2.46l1.119-1.119a5.613,5.613,0,0,0,1.632-3.939,3.283,3.283,0,0,0-4.5-3.049l-1.53.612-1.529-.611a3.283,3.283,0,0,0-4.5,3.048,5.613,5.613,0,0,0,1.632,3.939l1.119,1.119a3.472,3.472,0,0,1,1.019,2.46v2.772a.756.756,0,0,1-.754-.754V73.839a2.222,2.222,0,0,0-1.212-1.947,9.009,9.009,0,0,1-4.82-8.177,9.234,9.234,0,0,1,8.913-8.872h.136a9.05,9.05,0,0,1,4.275,17.026" transform="translate(-125.783 -50.317)" fill="#fff"/>
  </g>
</svg>
