<svg xmlns="http://www.w3.org/2000/svg" xmlns:xlink="http://www.w3.org/1999/xlink" width="51" height="51" viewBox="0 0 51 51">
  <defs>
    <clipPath id="clip-path">
      <rect id="Rectangle_265" data-name="Rectangle 265" width="51" height="51" transform="translate(0.226 0.226)" fill="#1d98c6"/>
    </clipPath>
  </defs>
  <g id="Group_470" data-name="Group 470" transform="translate(-0.166 -0.226)">
    <g id="Group_84" data-name="Group 84" transform="translate(-0.061)" clip-path="url(#clip-path)">
      <path id="Path_14" data-name="Path 14" d="M204.861,141.231l-11.052-11.052a1.606,1.606,0,0,0-2.741,1.137v5.761H178.217A3.212,3.212,0,0,0,175,140.289v6.426a3.214,3.214,0,0,0,3.213,3.213h12.852v5.761a1.605,1.605,0,0,0,2.741,1.134l11.052-11.049a3.221,3.221,0,0,0,0-4.543m-2.831,2.83-7.749,7.749v-4.305a.79.79,0,0,0-.79-.79H179.007a.792.792,0,0,1-.79-.79v-4.845a.79.79,0,0,1,.79-.79h14.484a.792.792,0,0,0,.79-.79v-4.305l7.749,7.746a.8.8,0,0,1,0,1.121" transform="translate(-158.893 -117.798)" fill="#1d98c6"/>
      <path id="Path_15" data-name="Path 15" d="M65.522,73.555a1.607,1.607,0,0,0-1.606,1.606v.8a.8.8,0,0,1-.8.8h-24.1a.8.8,0,0,1-.8-.8V39.016a.8.8,0,0,1,.8-.8h24.1a.8.8,0,0,1,.8.8v.8a1.606,1.606,0,1,0,3.213,0V38.213A3.212,3.212,0,0,0,63.916,35h-25.7A3.214,3.214,0,0,0,35,38.213V76.767a3.212,3.212,0,0,0,3.213,3.213h25.7a3.21,3.21,0,0,0,3.213-3.213V75.161a1.607,1.607,0,0,0-1.606-1.606" transform="translate(-31.741 -31.787)" fill="#1d98c6"/>
    </g>
  </g>
</svg>
