<svg id="Group_85" data-name="Group 85" xmlns="http://www.w3.org/2000/svg" xmlns:xlink="http://www.w3.org/1999/xlink" width="40" height="40" viewBox="0 0 40 40">
  <defs>
    <clipPath id="clip-path">
      <rect id="Rectangle_265" data-name="Rectangle 265" width="40" height="40" fill="none"/>
    </clipPath>
  </defs>
  <g id="Group_84" data-name="Group 84" clip-path="url(#clip-path)">
    <path id="Path_14" data-name="Path 14" d="M198.236,138.673l-8.6-8.6a1.249,1.249,0,0,0-2.133.885v4.482h-10a2.5,2.5,0,0,0-2.5,2.5v5a2.5,2.5,0,0,0,2.5,2.5h10v4.483a1.249,1.249,0,0,0,2.133.882l8.6-8.6a2.506,2.506,0,0,0,0-3.535m-2.2,2.2-6.03,6.03v-3.35a.615.615,0,0,0-.615-.615h-11.27a.616.616,0,0,1-.615-.615v-3.77a.615.615,0,0,1,.615-.615h11.27a.616.616,0,0,0,.615-.615v-3.35l6.03,6.028a.619.619,0,0,1,0,.872" transform="translate(-162.504 -120.44)" fill="#fff"/>
    <path id="Path_15" data-name="Path 15" d="M58.75,65a1.25,1.25,0,0,0-1.25,1.25v.625a.625.625,0,0,1-.625.625H38.125a.625.625,0,0,1-.625-.625V38.125a.625.625,0,0,1,.625-.625h18.75a.625.625,0,0,1,.625.625v.625a1.25,1.25,0,0,0,2.5,0V37.5A2.5,2.5,0,0,0,57.5,35h-20A2.5,2.5,0,0,0,35,37.5v30A2.5,2.5,0,0,0,37.5,70h20A2.5,2.5,0,0,0,60,67.5V66.25A1.25,1.25,0,0,0,58.75,65" transform="translate(-32.5 -32.5)" fill="#fff"/>
  </g>
</svg>
