<svg xmlns="http://www.w3.org/2000/svg" xmlns:xlink="http://www.w3.org/1999/xlink" width="36" height="36" viewBox="0 0 36 36">
  <defs>
    <clipPath id="clip-path">
      <rect id="Rectangle_270" data-name="Rectangle 270" width="36" height="36" fill="none"/>
    </clipPath>
  </defs>
  <g id="Group_103" data-name="Group 103" clip-path="url(#clip-path)">
    <path id="Path_20" data-name="Path 20" d="M78.835,53.74l-3.182-3.181a2.247,2.247,0,0,0-3.182,0l-1.591,1.591L69.29,53.74,52.163,70.864a2.258,2.258,0,0,0-.542.88L50.03,76.516a2.251,2.251,0,0,0,2.844,2.849l4.775-1.591a2.258,2.258,0,0,0,.88-.547L75.653,60.1l1.591-1.591,1.591-1.593a2.247,2.247,0,0,0,0-3.181M52.856,77.248a.562.562,0,0,1-.713-.711l1.238-3.706,3.181,3.181Zm5.3-2.826L54.971,71.24l15.91-15.91,3.181,3.184Zm17.5-17.5L72.472,53.74l1.591-1.591,3.181,3.182Z" transform="translate(-46.702 -46.691)" fill="#fff"/>
  </g>
</svg>
