<svg id="Group_109" data-name="Group 109" xmlns="http://www.w3.org/2000/svg" xmlns:xlink="http://www.w3.org/1999/xlink" width="36" height="36" viewBox="0 0 36 36">
  <defs>
    <clipPath id="clip-path">
      <rect id="Rectangle_269" data-name="Rectangle 269" width="36" height="36" fill="none"/>
    </clipPath>
  </defs>
  <g id="Group_101" data-name="Group 101" clip-path="url(#clip-path)">
    <path id="Path_18" data-name="Path 18" d="M181.75,175a6.75,6.75,0,1,0,6.75,6.75,6.75,6.75,0,0,0-6.75-6.75m0,11.25a4.5,4.5,0,1,1,4.5-4.5,4.5,4.5,0,0,1-4.5,4.5" transform="translate(-163.75 -163.75)" fill="#fff"/>
    <path id="Path_19" data-name="Path 19" d="M66.375,48.8a2.265,2.265,0,0,0-1.919-1.944l-2.241-.326a.563.563,0,0,1-.371-.893l1.35-1.814a2.29,2.29,0,0,0-.063-2.788,15.737,15.737,0,0,0-2.666-2.666,2.29,2.29,0,0,0-2.788-.063l-1.813,1.35a.561.561,0,0,1-.891-.369l-.328-2.243A2.265,2.265,0,0,0,52.7,35.124a14.832,14.832,0,0,0-3.893,0,2.263,2.263,0,0,0-1.944,1.919l-.328,2.243a.563.563,0,0,1-.893.369l-1.811-1.35a2.29,2.29,0,0,0-2.788.063,15.833,15.833,0,0,0-2.668,2.666,2.293,2.293,0,0,0-.061,2.788l1.35,1.814a.563.563,0,0,1-.369.893l-2.243.326A2.267,2.267,0,0,0,35.129,48.8a15.087,15.087,0,0,0,0,3.892,2.272,2.272,0,0,0,1.921,1.946l2.243.326a.563.563,0,0,1,.369.893l-1.35,1.811a2.3,2.3,0,0,0,.061,2.79,15.9,15.9,0,0,0,2.668,2.664,2.29,2.29,0,0,0,2.788.063l1.811-1.35a.563.563,0,0,1,.893.371l.328,2.241a2.265,2.265,0,0,0,1.944,1.919,14.832,14.832,0,0,0,3.893,0,2.267,2.267,0,0,0,1.944-1.919l.328-2.241a.562.562,0,0,1,.891-.371l1.813,1.35a2.29,2.29,0,0,0,2.788-.063,15.8,15.8,0,0,0,2.666-2.664,2.293,2.293,0,0,0,.063-2.79l-1.35-1.811a.563.563,0,0,1,.371-.893l2.241-.326a2.269,2.269,0,0,0,1.919-1.946,14.832,14.832,0,0,0,0-3.892m-2.23,3.6-2.257.34a2.823,2.823,0,0,0-2.194,1.705,2.793,2.793,0,0,0,.342,2.754l1.352,1.816a13.251,13.251,0,0,1-2.313,2.34l-1.868-1.323a2.812,2.812,0,0,0-4.464,1.85l-.326,2.241a10.583,10.583,0,0,1-1.665.124,12.527,12.527,0,0,1-1.654-.108l-.337-2.257a2.829,2.829,0,0,0-2.785-2.407,2.8,2.8,0,0,0-1.681.558l-1.811,1.352a13.367,13.367,0,0,1-2.342-2.318L41.465,57.2a2.782,2.782,0,0,0,.344-2.756,2.823,2.823,0,0,0-2.191-1.705l-2.243-.329a11.1,11.1,0,0,1-.121-1.665,12.956,12.956,0,0,1,.108-1.656l2.257-.335a2.812,2.812,0,0,0,1.847-4.464l-1.35-1.811a13.215,13.215,0,0,1,2.317-2.342L44.3,41.46a2.787,2.787,0,0,0,1.678.558,2.829,2.829,0,0,0,2.785-2.408l.329-2.243a11.043,11.043,0,0,1,1.663-.122,12.945,12.945,0,0,1,1.656.108l.335,2.257a2.831,2.831,0,0,0,2.785,2.408,2.8,2.8,0,0,0,1.676-.558l1.816-1.35a13.16,13.16,0,0,1,2.338,2.313l-1.321,1.868a2.812,2.812,0,0,0,1.85,4.464l2.241.329a10.8,10.8,0,0,1,.124,1.663,12.921,12.921,0,0,1-.108,1.654" transform="translate(-32.753 -32.746)" fill="#fff"/>
  </g>
</svg>
