<svg xmlns="http://www.w3.org/2000/svg" xmlns:xlink="http://www.w3.org/1999/xlink" width="110" height="110" viewBox="0 0 110 110">
  <defs>
    <clipPath id="clip-path">
      <rect id="Rectangle_281" data-name="Rectangle 281" width="110" height="110" transform="translate(-0.375 -0.375)" fill="#002045"/>
    </clipPath>
  </defs>
  <g id="Group_130" data-name="Group 130" transform="translate(0.375 0.375)" clip-path="url(#clip-path)">
    <path id="Path_61" data-name="Path 61" d="M137.848,106.666H60.186a6.86,6.86,0,0,0-6.853,6.853V159.2a6.86,6.86,0,0,0,6.853,6.853H96.733v9.137H78.459a2.284,2.284,0,0,0,0,4.568h41.115a2.284,2.284,0,0,0,0-4.568H101.3v-9.137h36.547A6.86,6.86,0,0,0,144.7,159.2V113.519a6.86,6.86,0,0,0-6.853-6.853m2.284,52.537a2.289,2.289,0,0,1-2.284,2.284H60.186A2.289,2.289,0,0,1,57.9,159.2V113.519a2.287,2.287,0,0,1,2.284-2.284h77.663a2.287,2.287,0,0,1,2.284,2.284Z" transform="translate(-44.392 -88.588)" fill="#002045"/>
    <path id="Path_62" data-name="Path 62" d="M268.951,266.667a2.283,2.283,0,0,0-2.284,2.284v13.705a2.284,2.284,0,1,0,4.568,0V268.951a2.283,2.283,0,0,0-2.284-2.284" transform="translate(-221.179 -221.179)" fill="#002045"/>
    <path id="Path_63" data-name="Path 63" d="M348.951,240a2.283,2.283,0,0,0-2.284,2.284v18.274a2.284,2.284,0,0,0,4.568,0V242.284A2.283,2.283,0,0,0,348.951,240" transform="translate(-287.474 -199.08)" fill="#002045"/>
    <path id="Path_64" data-name="Path 64" d="M428.951,213.333a2.283,2.283,0,0,0-2.284,2.284v22.842a2.284,2.284,0,1,0,4.568,0V215.617a2.283,2.283,0,0,0-2.284-2.284" transform="translate(-353.769 -176.982)" fill="#002045"/>
    <path id="Path_65" data-name="Path 65" d="M188.951,293.333a2.283,2.283,0,0,0-2.284,2.284v9.137a2.284,2.284,0,0,0,4.568,0v-9.137a2.283,2.283,0,0,0-2.284-2.284" transform="translate(-154.884 -243.277)" fill="#002045"/>
    <path id="Path_66" data-name="Path 66" d="M217.084,169.022l13.705-4.568a2.283,2.283,0,1,0-1.445-4.332l-13.351,4.45H202.656c-.071,0-.131.034-.2.041a2.185,2.185,0,0,0-.458.092,2.215,2.215,0,0,0-.417.172c-.062.034-.132.039-.192.079l-13.705,9.137a2.284,2.284,0,0,0,2.534,3.8l13.13-8.753h13.014a2.269,2.269,0,0,0,.723-.118" transform="translate(-154.883 -132.79)" fill="#002045"/>
  </g>
</svg>
