<svg xmlns="http://www.w3.org/2000/svg" xmlns:xlink="http://www.w3.org/1999/xlink" width="51" height="51" viewBox="0 0 51 51">
  <defs>
    <clipPath id="clip-path">
      <rect id="Rectangle_266" data-name="Rectangle 266" width="51" height="51" transform="translate(0 0.227)" fill="#1d98c6"/>
    </clipPath>
  </defs>
  <g id="Group_469" data-name="Group 469" transform="translate(0 -0.227)">
    <g id="Group_86" data-name="Group 86" clip-path="url(#clip-path)">
      <path id="Path_16" data-name="Path 16" d="M82.43,76.138A19.234,19.234,0,0,0,67.549,61.027c3.277-2.757,5.628-7.4,5.628-13.22a12.807,12.807,0,0,0-25.613,0c0,5.82,2.351,10.463,5.628,13.22A19.234,19.234,0,0,0,38.311,76.138a3.177,3.177,0,0,0,3.176,3.685H79.254a3.175,3.175,0,0,0,3.176-3.685M50.765,47.807a9.605,9.605,0,1,1,19.21,0c0,7.911-4.988,12.807-9.605,12.807s-9.605-4.9-9.605-12.807M78.226,76.622H42.514a.812.812,0,0,1-.794-1.005,16.04,16.04,0,0,1,15.448-11.8h6.4a16.03,16.03,0,0,1,15.445,11.8.812.812,0,0,1-.791,1.005" transform="translate(-34.757 -31.798)" fill="#1d98c6"/>
    </g>
  </g>
</svg>
