<svg xmlns="http://www.w3.org/2000/svg" xmlns:xlink="http://www.w3.org/1999/xlink" width="40" height="40" viewBox="0 0 40 40">
  <defs>
    <clipPath id="clip-path">
      <rect id="Rectangle_266" data-name="Rectangle 266" width="40" height="40" fill="#fff"/>
    </clipPath>
  </defs>
  <g id="Group_86" data-name="Group 86" clip-path="url(#clip-path)">
    <path id="Path_16" data-name="Path 16" d="M72.749,67.123a15.019,15.019,0,0,0-11.62-11.8A13.291,13.291,0,0,0,65.524,45a10,10,0,0,0-20,0,13.291,13.291,0,0,0,4.395,10.323,15.019,15.019,0,0,0-11.62,11.8A2.481,2.481,0,0,0,40.779,70h29.49a2.479,2.479,0,0,0,2.48-2.878M48.024,45a7.5,7.5,0,0,1,15,0c0,6.178-3.9,10-7.5,10s-7.5-3.822-7.5-10M69.466,67.5H41.581a.634.634,0,0,1-.62-.785A12.524,12.524,0,0,1,53.024,57.5h5a12.517,12.517,0,0,1,12.06,9.215.634.634,0,0,1-.618.785" transform="translate(-35.524 -32.5)" fill="#fff"/>
  </g>
</svg>
